<?xml version="1.0" standalone="no"?>
<!DOCTYPE svg PUBLIC "-//W3C//DTD SVG 20010904//EN"
 "http://www.w3.org/TR/2001/REC-SVG-20010904/DTD/svg10.dtd">
<svg version="1.0" xmlns="http://www.w3.org/2000/svg"
 width="512.000000pt" height="512.000000pt" viewBox="0 0 512.000000 512.000000"
 preserveAspectRatio="xMidYMid meet">
<metadata>
Created by potrace 1.14, written by Peter Selinger 2001-2017
</metadata>
<g transform="translate(0.000000,512.000000) scale(0.100000,-0.100000)"
fill="#000000" stroke="none">
<path d="M2255 4957 c-265 -155 -709 -412 -785 -454 -66 -38 -265 -153 -280
-162 -8 -6 -37 -22 -65 -37 -27 -14 -57 -32 -66 -40 -8 -8 -18 -14 -21 -14 -3
0 -115 -63 -249 -141 -134 -78 -288 -166 -341 -197 -66 -38 -101 -64 -107 -82
-14 -34 -13 -2515 1 -2545 6 -14 152 -104 415 -256 223 -129 424 -245 447
-258 148 -86 169 -91 206 -43 21 26 22 54 5 84 -9 14 -127 86 -356 217 -217
123 -357 207 -353 210 9 9 1069 6 1086 -4 15 -8 558 -935 558 -952 0 -3 -6 -1
-12 5 -15 11 -637 371 -683 394 -57 29 -115 -3 -115 -63 0 -39 18 -53 190
-152 80 -46 280 -161 445 -257 347 -200 353 -203 383 -208 20 -2 179 85 637
353 92 53 459 265 1115 643 441 254 452 261 467 291 15 31 18 2489 3 2536 -11
32 16 16 -575 357 -137 80 -383 221 -545 315 -162 94 -311 179 -330 190 -19
11 -150 87 -290 168 -140 81 -275 159 -299 173 -25 14 -67 38 -95 54 -89 53
-80 56 -391 -125z m1280 -562 c198 -114 378 -218 400 -230 22 -13 81 -46 130
-75 50 -29 106 -62 125 -72 19 -11 76 -44 125 -73 50 -29 97 -55 105 -58 23
-8 2 -9 -565 -9 -504 0 -530 1 -543 19 -7 10 -48 79 -91 153 -43 74 -159 274
-257 445 -98 170 -182 317 -186 326 -4 9 81 -34 195 -101 111 -64 364 -210
562 -325z m-1197 413 c-8 -13 -129 -221 -268 -463 -139 -242 -259 -447 -266
-455 -11 -13 -84 -15 -553 -14 -298 0 -543 3 -545 5 -3 2 299 180 671 394 371
215 739 427 817 472 77 45 145 82 150 83 4 0 2 -10 -6 -22z m345 -125 c24 -43
54 -94 64 -113 11 -19 105 -181 207 -358 103 -178 185 -326 183 -329 -4 -3
-387 -7 -482 -4 -20 1 -20 8 -20 441 0 242 1 440 2 440 1 0 21 -35 46 -77z
m-198 -360 c0 -236 -3 -432 -7 -438 -6 -10 -483 -13 -494 -3 -3 3 79 151 182
329 213 370 232 403 276 482 18 31 35 57 38 57 3 0 5 -192 5 -427z m-777 -602
c-2 -4 -59 -104 -127 -222 l-125 -215 -180 104 c-100 58 -270 156 -378 219
-109 63 -198 116 -198 117 0 2 227 3 506 4 278 0 504 -3 502 -7z m692 -45
c-16 -28 -78 -134 -136 -236 l-107 -185 -268 0 c-148 0 -269 3 -269 6 0 3 25
48 55 100 30 52 89 155 132 230 l78 136 272 0 273 0 -30 -51z m857 12 c14 -23
35 -60 48 -82 12 -23 61 -108 108 -190 48 -82 85 -152 82 -155 -3 -3 -123 -5
-266 -6 l-261 0 -18 25 c-9 14 -70 117 -135 230 -64 113 -119 208 -121 212 -2
3 118 6 266 6 l271 0 26 -40z m1156 31 c-6 -6 -307 -181 -483 -281 -19 -11
-71 -41 -115 -67 -44 -26 -87 -50 -95 -54 -8 -4 -23 -12 -32 -19 -11 -8 -21
-9 -27 -3 -17 18 -249 424 -244 429 2 2 229 4 504 4 275 -1 497 -4 492 -9z
m-1739 -264 c58 -101 106 -188 106 -192 0 -4 -99 -8 -220 -8 -121 0 -220 4
-220 9 0 7 94 174 145 257 6 9 22 39 38 68 15 28 31 51 36 51 4 0 56 -83 115
-185z m-1946 76 c55 -32 124 -72 154 -89 64 -34 312 -178 348 -201 14 -8 45
-27 70 -41 25 -14 54 -30 63 -36 16 -9 6 -32 -108 -230 -70 -120 -128 -220
-129 -221 -1 -1 -45 73 -98 165 -53 92 -153 266 -223 387 -179 309 -188 325
-182 325 3 0 50 -27 105 -59z m3711 -52 c-34 -57 -73 -124 -87 -149 -13 -25
-48 -85 -77 -135 -29 -49 -103 -178 -165 -285 -62 -107 -114 -196 -114 -197
-2 -2 -248 422 -254 437 -1 3 8 12 20 18 13 6 46 24 73 40 394 229 659 381
662 378 2 -2 -24 -50 -58 -107z m-3798 -228 c71 -123 129 -225 129 -227 0 -1
32 -55 70 -120 39 -64 70 -118 70 -120 0 -2 21 -38 47 -81 25 -43 54 -93 63
-112 l17 -34 -70 -121 c-38 -67 -78 -134 -88 -151 -10 -16 -26 -46 -37 -65
-23 -42 -353 -614 -356 -617 -1 -2 -2 428 -2 954 0 813 2 953 13 937 8 -10 72
-120 144 -243z m3995 -701 l1 -948 -37 61 c-51 87 -131 225 -339 584 l-180
313 71 122 c39 68 111 193 161 278 49 85 98 171 109 190 23 39 122 210 163
280 14 25 29 53 32 63 3 10 8 15 12 12 3 -4 6 -433 7 -955z m-2578 535 c-40
-76 -211 -365 -216 -365 -4 0 -32 44 -62 97 -30 53 -67 117 -82 142 -28 49
-78 141 -78 145 0 1 101 2 224 2 222 -1 224 -1 214 -21z m837 -15 c13 -19 84
-142 159 -272 l137 -237 -151 -263 c-84 -145 -156 -267 -161 -273 -6 -6 -128
-10 -323 -10 l-314 -1 -24 46 c-14 25 -84 147 -157 273 l-132 227 57 98 c31
53 65 113 76 132 57 100 172 296 179 305 5 7 115 11 320 10 l312 0 22 -35z
m605 31 c0 -14 -217 -380 -224 -378 -4 2 -50 76 -101 165 -51 89 -100 173
-108 186 -9 13 -14 26 -12 28 6 5 445 5 445 -1z m-1867 -328 c64 -112 117
-209 117 -216 0 -7 -11 -29 -25 -49 -14 -20 -25 -39 -25 -42 0 -4 -208 -365
-215 -374 -2 -3 -64 99 -74 121 -1 4 -47 85 -101 178 l-98 170 78 134 c84 145
157 271 179 312 l13 25 17 -29 c10 -15 70 -119 134 -230z m2141 19 c122 -211
132 -233 121 -254 -7 -13 -67 -119 -135 -236 l-123 -213 -31 53 c-18 29 -35
60 -39 68 -4 8 -15 29 -26 45 -58 95 -171 296 -171 305 0 13 263 470 268 465
2 -1 63 -107 136 -233z m-2502 -636 c60 -104 107 -190 106 -191 -4 -3 -420
-244 -481 -279 -23 -13 -93 -53 -156 -90 -63 -36 -115 -65 -117 -64 -1 2 35
68 81 148 46 80 92 161 103 180 11 19 75 132 144 250 68 118 135 234 148 257
l23 43 20 -33 c11 -17 69 -117 129 -221z m2053 172 c26 -45 56 -98 67 -117 11
-20 37 -66 59 -102 21 -36 39 -72 41 -80 3 -12 -33 -14 -219 -14 -123 0 -223
1 -223 2 0 2 11 21 25 43 14 22 25 44 25 50 0 5 4 10 9 10 5 0 14 12 20 28 6
15 25 50 41 77 17 28 47 80 68 117 20 38 38 68 38 68 1 0 23 -37 49 -82z m765
-83 c51 -88 102 -178 115 -200 12 -22 84 -146 158 -275 75 -129 134 -236 132
-239 -3 -2 -10 1 -17 6 -7 6 -175 104 -373 218 -198 114 -361 209 -363 210 -1
1 55 102 125 223 70 122 128 220 129 219 1 -1 44 -74 94 -162z m-2142 -17 c54
-95 104 -182 110 -193 10 -20 8 -21 -211 -20 -141 0 -222 4 -222 10 0 14 208
374 217 375 3 0 51 -78 106 -172z m222 -388 c27 -39 250 -430 250 -439 0 -5
-119 -9 -266 -9 l-265 0 -23 36 c-35 57 -235 406 -241 423 -4 12 33 14 261 14
l266 -1 18 -24z m610 17 c0 -14 -212 -377 -220 -377 -6 0 -92 143 -192 320
-11 19 -24 40 -30 47 -6 8 -2 12 14 15 49 7 428 3 428 -5z m720 2 c0 -4 -60
-109 -133 -235 l-132 -229 -268 -2 c-172 -1 -267 2 -267 8 0 6 18 41 39 77 22
37 50 86 63 108 13 23 54 95 92 160 l69 119 268 0 c148 0 269 -3 269 -6z
m-1913 -249 c68 -117 123 -214 123 -215 0 -2 -228 -3 -506 -3 -278 0 -502 4
-497 8 4 5 24 17 43 28 19 11 184 105 365 211 182 105 334 189 339 188 6 -2
65 -99 133 -217z m2393 43 c168 -97 332 -191 365 -210 33 -19 64 -38 68 -42 5
-5 -219 -9 -497 -9 -278 0 -506 3 -506 7 0 3 9 17 20 31 11 14 20 28 20 31 0
4 30 58 66 120 37 63 80 139 97 169 33 61 46 80 56 80 3 0 143 -79 311 -177z
m-1510 -412 c13 -1 15 -57 15 -441 0 -242 -1 -440 -2 -440 -1 0 -12 19 -26 42
-13 24 -41 72 -62 108 -20 36 -46 81 -57 100 -11 19 -71 123 -133 230 -145
252 -153 265 -187 327 -16 29 -34 56 -40 60 -25 14 28 18 249 16 125 0 235 -2
243 -2z m667 -4 c2 -3 -46 -92 -108 -199 -61 -106 -122 -211 -134 -233 -13
-22 -64 -110 -114 -195 -49 -85 -100 -174 -112 -197 -13 -24 -25 -43 -28 -43
-4 0 -6 195 -6 433 l0 432 24 5 c31 6 471 3 478 -3z m1277 2 c3 -2 -131 -83
-297 -178 -166 -96 -441 -255 -611 -353 -169 -98 -327 -189 -350 -202 -22 -13
-117 -67 -209 -121 -93 -53 -170 -95 -172 -94 -1 2 29 58 67 124 68 115 245
422 405 700 l74 130 544 -1 c300 0 547 -2 549 -5z"/>
</g>
</svg>
